<?xml version="1.0" encoding="utf-8"?>
<!-- Generator: Adobe Illustrator 15.1.0, SVG Export Plug-In . SVG Version: 6.00 Build 0)  -->
<!DOCTYPE svg PUBLIC "-//W3C//DTD SVG 1.1//EN" "http://www.w3.org/Graphics/SVG/1.1/DTD/svg11.dtd">
<svg version="1.1" id="GC_1_" xmlns="http://www.w3.org/2000/svg" xmlns:xlink="http://www.w3.org/1999/xlink" x="0px" y="0px"
	 width="200px" height="200px" viewBox="0 0 200 200" enable-background="new 0 0 200 200" xml:space="preserve">
<path fill="none" stroke="#101010" stroke-width="3" stroke-miterlimit="10" d="M35.833,76.417c4.495-1.998,4.417-3.5,5.25-5.167
	s0.917-3.167,3.25-4.167s4.25-0.583,6.417-2.333s2-2.917,3.083-3.917s4.5-2,5.583-3.75s3.416-4,3.333-5.75s0.833-4.084-0.5-4.917
	s-0.666-2.916,0.667-3.833s-1-2.833-0.75-4.083s3.583-2.5,3.5-5.083S64.833,31.583,65,30.583S68.333,28.25,66.25,27
	s-5.083-3.917-2.417-5.5s2.917,0.584,3.667,0.667s1.417-1.917,4.167-2.583s1.25,3.75,2.333,4.25s6.417-0.333,8.917-1.75
	s2.25-2.083,4.25-2.25s3.5,1.917,5,4.917s5.499,4.833,11.583,4.833s11.751-0.25,14.084-1.833s4.584-2.667,6-2s4.334,2.25,6.5,2.333
	s3.5,0.833,5.083,2.167s5.249,1.417,5.833,2.75s4.917,4,7.917,2.25s5.5-5.333,4.75-7.5s-3.833-3.583-3.333-5.333
	s2.499-2.833,4.666-4.417s4.5-2.167,6.167-1.75s4.833,2.417,4.833,4.667s-0.749,6.5-3.666,7.667s-5.25,2-5.5,3.667
	s1.667,6,4.25,9.917s1,6.917,0,11.25s-1.75,10.417,1.5,13.917s5.916,5.75,7.916,7.75s3.25,3.167,4.083,3.667s0.75,2,0.25,3.25
	s-1.834,2.833-0.167,3.583s0.917,3.167-0.333,5.25s-3,4.667-2.583,6.667s-0.001,5.084,1.833,6.417s5.334,2.917,6.334,4.167
	s0.75,5.249-1.5,4.416s-3.416-2.833-5.25-1.333S170.5,114.416,171,117s0.751,3.084-0.083,4.917s-3.166,2.583-2,4.5
	s3.084,3.167,2.75,6.5s-4.584,5.666-6.417,7.333s-6.084,3.084-6.167,5.417s1.666,9.999-2.917,11.916s-9.917,1-14.25,2.5
	s-8.082,6.334-10.916,6.584s-5.668,1.166-8.334,3.083s-4.583,1.416-5.833,3.666s-2.001,3.75-3.917,3.917s-2.167,4.083-2.5,5
	s-4.334,3.001-7.5,1.417c-3.167-1.584-5.083-5.334-7.417-4.917s-8.25,0.417-10.083-0.333s-3.833-2.25-7.083-1
	s-4.667,3.083-5.833,0.333s-5.25-9.167-7.917-10.75s-7.25-1.666-7.833-3.333s-2.667-8.083-6.25-8.583s-7.333-3.833-8.667-4.75
	s-5-5.584-6.417-8.334s-5.834-6.582-5.75-9.416s-3.333-8.834-4.75-10.334s-4.333-4.417-3.083-10s-1-11.917-0.75-14.667
	s0.583-4.25,2.5-7.417s2.5-5.833,2.083-7.75s1.583-4.75,4.25-5S34.334,77.083,35.833,76.417z"/>
</svg>
