<svg viewBox="0 0 256 256" xmlns="http://www.w3.org/2000/svg"><path d="m128 80a48 48 0 1 0 48 48 48.05436 48.05436 0 0 0 -48-48zm0 80a32 32 0 1 1 32-32 32.03635 32.03635 0 0 1 -32 32zm44-132h-88a56.06353 56.06353 0 0 0 -56 56v88a56.06353 56.06353 0 0 0 56 56h88a56.06353 56.06353 0 0 0 56-56v-88a56.06353 56.06353 0 0 0 -56-56zm40 144a40.04521 40.04521 0 0 1 -40 40h-88a40.04521 40.04521 0 0 1 -40-40v-88a40.04521 40.04521 0 0 1 40-40h88a40.04521 40.04521 0 0 1 40 40zm-20-96a12 12 0 1 1 -12-12 12 12 0 0 1 12 12z"/></svg>